<svg width="28" height="28" viewBox="0 0 28 28" fill="none" xmlns="http://www.w3.org/2000/svg">
<path d="M24.9404 11.8051C24.7144 9.5473 23.853 7.39986 22.456 5.61185C21.059 3.82385 19.1836 2.46856 17.0476 1.70322C14.9115 0.937877 12.6022 0.793843 10.3876 1.28782C8.17292 1.78181 6.14373 2.89356 4.53538 4.49411C2.92702 6.09467 1.80541 8.11843 1.30067 10.3306C0.795921 12.5428 0.928725 14.8528 1.68367 16.9926C2.43862 19.1324 3.78477 21.0142 5.56596 22.4199C7.34715 23.8256 9.49038 24.6975 11.747 24.9344M9.00036 10.3331H9.01369M17.0004 10.3331H17.0137" stroke="black" stroke-width="2" stroke-linecap="round" stroke-linejoin="round"/>
<path d="M9.66406 16.999C10.5414 17.895 11.7441 18.3323 12.9974 18.3323C13.1654 18.3323 13.3325 18.3243 13.4987 18.3083M21.5574 17.8123C21.8174 17.5523 22.1261 17.3461 22.4658 17.2053C22.8056 17.0646 23.1697 16.9922 23.5374 16.9922C23.9051 16.9922 24.2692 17.0646 24.609 17.2053C24.9487 17.3461 25.2574 17.5523 25.5174 17.8123C25.7774 18.0723 25.9837 18.381 26.1244 18.7208C26.2651 19.0605 26.3375 19.4246 26.3375 19.7923C26.3375 20.16 26.2651 20.5242 26.1244 20.8639C25.9837 21.2036 25.7774 21.5123 25.5174 21.7723L20.9974 26.3323H16.9974V22.3323L21.5574 17.8123Z" stroke="black" stroke-width="2" stroke-linecap="round" stroke-linejoin="round"/>
</svg>
