<svg width="25" height="19" viewBox="0 0 25 19" fill="none" xmlns="http://www.w3.org/2000/svg">
<path d="M0.84375 1.16062C0.84375 0.890104 0.951214 0.630663 1.1425 0.439376C1.33379 0.248089 1.59323 0.140625 1.86375 0.140625H23.6238C23.8943 0.140625 24.1537 0.248089 24.345 0.439376C24.5363 0.630663 24.6438 0.890104 24.6438 1.16062C24.6438 1.43115 24.5363 1.69059 24.345 1.88187C24.1537 2.07316 23.8943 2.18062 23.6238 2.18062H1.86375C1.59323 2.18062 1.33379 2.07316 1.1425 1.88187C0.951214 1.69059 0.84375 1.43115 0.84375 1.16062ZM0.84375 17.4806C0.84375 17.2101 0.951214 16.9507 1.1425 16.7594C1.33379 16.5681 1.59323 16.4606 1.86375 16.4606H23.6238C23.8943 16.4606 24.1537 16.5681 24.345 16.7594C24.5363 16.9507 24.6438 17.2101 24.6438 17.4806C24.6438 17.7511 24.5363 18.0106 24.345 18.2019C24.1537 18.3932 23.8943 18.5006 23.6238 18.5006H1.86375C1.59323 18.5006 1.33379 18.3932 1.1425 18.2019C0.951214 18.0106 0.84375 17.7511 0.84375 17.4806ZM1.86375 8.30062C1.59323 8.30062 1.33379 8.40809 1.1425 8.59938C0.951214 8.79066 0.84375 9.0501 0.84375 9.32063C0.84375 9.59115 0.951214 9.85059 1.1425 10.0419C1.33379 10.2332 1.59323 10.3406 1.86375 10.3406H23.6238C23.8943 10.3406 24.1537 10.2332 24.345 10.0419C24.5363 9.85059 24.6438 9.59115 24.6438 9.32063C24.6438 9.0501 24.5363 8.79066 24.345 8.59938C24.1537 8.40809 23.8943 8.30062 23.6238 8.30062H1.86375Z" fill="black"/>
</svg>
